<svg id="Layer_1" data-name="Layer 1" xmlns="http://www.w3.org/2000/svg" width="37.27mm" height="8.07mm" viewBox="0 0 105.65 22.87"><defs><style>.cls-1{fill:#231f20;}.cls-2{fill:none;stroke:#231f20;stroke-linejoin:round;stroke-width:2px;}</style></defs><title>Artboard 1</title><path class="cls-1" d="M6.33,18.41V4.21H9.22V16h7.19v2.41Z"/><path class="cls-1" d="M17.88,11.34a9,9,0,0,1,.66-3.67,6.67,6.67,0,0,1,1.33-2,5.54,5.54,0,0,1,1.85-1.29,7.81,7.81,0,0,1,3.09-.57,6.72,6.72,0,0,1,5.06,2,7.47,7.47,0,0,1,1.9,5.45,7.53,7.53,0,0,1-1.88,5.43,6.7,6.7,0,0,1-5,2,6.73,6.73,0,0,1-5.08-1.95A7.39,7.39,0,0,1,17.88,11.34Zm3-.09A5.33,5.33,0,0,0,22,14.93a3.84,3.84,0,0,0,5.68,0,5.45,5.45,0,0,0,1.11-3.73A5.41,5.41,0,0,0,27.7,7.53a3.66,3.66,0,0,0-2.86-1.21A3.66,3.66,0,0,0,22,7.55,5.42,5.42,0,0,0,20.86,11.25Z"/><path class="cls-1" d="M40.69,13.15V10.74h6.23v5.7A7.93,7.93,0,0,1,44.28,18a9.66,9.66,0,0,1-3.49.67,7.81,7.81,0,0,1-3.91-.95A5.9,5.9,0,0,1,34.37,15a8.71,8.71,0,0,1-.84-3.81,8.21,8.21,0,0,1,.94-4,6.24,6.24,0,0,1,2.74-2.66,7.35,7.35,0,0,1,3.43-.72A6.88,6.88,0,0,1,44.8,5a5.09,5.09,0,0,1,1.93,3.09l-2.87.54a3,3,0,0,0-1.14-1.67,3.46,3.46,0,0,0-2.08-.61,3.93,3.93,0,0,0-3,1.2,5.11,5.11,0,0,0-1.11,3.57,5.57,5.57,0,0,0,1.13,3.82,3.77,3.77,0,0,0,3,1.28,5,5,0,0,0,1.82-.36A6.67,6.67,0,0,0,44,15V13.15Z"/><path class="cls-1" d="M49.49,18.41V4.1h2.9V18.41Z"/><path class="cls-1" d="M55.17,18.41V4.1H58l5.86,9.56V4.1h2.69V18.41h-2.9L57.85,9.08v9.33Z"/><polyline class="cls-2" points="79.5 11.61 98.77 11.61 93.19 4.09"/><polyline class="cls-2" points="79.5 11.97 98.77 11.97 93.19 19.48"/></svg>