<svg id="Layer_1" data-name="Layer 1" xmlns="http://www.w3.org/2000/svg" width="64.43mm" height="12.57mm" viewBox="0 0 182.62 35.62"><defs><style>.cls-1{fill:#231f20;}.cls-2{fill:none;stroke:#231f20;stroke-linejoin:round;stroke-width:2px;}</style></defs><title>Login</title><path class="cls-1" d="M7.64,30.68V4.32H13V26.2H26.35v4.48Z"/><path class="cls-1" d="M29.09,17.55a16.83,16.83,0,0,1,1.22-6.81,12.32,12.32,0,0,1,2.47-3.65A10.44,10.44,0,0,1,36.22,4.7a14.56,14.56,0,0,1,5.72-1.05,12.47,12.47,0,0,1,9.4,3.64q3.52,3.65,3.53,10.13c0,4.3-1.17,7.65-3.5,10.08A12.38,12.38,0,0,1,42,31.13a12.51,12.51,0,0,1-9.43-3.62Q29.1,23.9,29.09,17.55Zm5.53-.18q0,4.51,2.08,6.84a7.17,7.17,0,0,0,10.56,0c1.38-1.54,2.06-3.85,2.06-6.93s-.67-5.32-2-6.82A6.78,6.78,0,0,0,42,8.23a6.82,6.82,0,0,0-5.35,2.28C35.3,12,34.62,14.31,34.62,17.37Z"/><path class="cls-1" d="M71.42,20.91V16.43H83V27a14.68,14.68,0,0,1-4.89,2.88,17.71,17.71,0,0,1-6.48,1.24,14.52,14.52,0,0,1-7.27-1.75,11.12,11.12,0,0,1-4.66-5,16.17,16.17,0,0,1-1.56-7.08,15.3,15.3,0,0,1,1.74-7.38A11.73,11.73,0,0,1,65,5a13.74,13.74,0,0,1,6.36-1.32q5,0,7.73,2.07a9.37,9.37,0,0,1,3.58,5.74l-5.33,1A5.58,5.58,0,0,0,75.2,9.37a6.34,6.34,0,0,0-3.87-1.14,7.29,7.29,0,0,0-5.59,2.23q-2.09,2.23-2.08,6.62,0,4.73,2.1,7.1a7,7,0,0,0,5.52,2.36,9.27,9.27,0,0,0,3.38-.66,11.5,11.5,0,0,0,2.91-1.6V20.91Z"/><path class="cls-1" d="M87.77,30.68V4.1h5.37V30.68Z"/><path class="cls-1" d="M98.3,30.68V4.1h5.23L114.4,21.85V4.1h5V30.68H114L103.29,13.35V30.68Z"/><polyline class="cls-2" points="143.47 18.04 179.25 18.04 168.88 4.09"/><polyline class="cls-2" points="143.47 18.71 179.25 18.71 168.88 32.66"/></svg>
