<svg id="Lag_1" data-name="Lag 1" xmlns="http://www.w3.org/2000/svg" width="87.46" height="16.13" viewBox="0 0 87.46 16.13"><defs><style>.cls-1{fill:none;stroke:#000;stroke-miterlimit:10;stroke-width:2px;}</style></defs><title>loginpil</title><path d="M2.67,18.09V3.9H5.56V15.68h7.19v2.41Z" transform="translate(-2.67 -3.53)"/><path d="M14.22,11a9.06,9.06,0,0,1,.66-3.67,6.67,6.67,0,0,1,1.33-2A5.54,5.54,0,0,1,18.06,4.1a7.8,7.8,0,0,1,3.08-.57,6.74,6.74,0,0,1,5.07,2A7.56,7.56,0,0,1,28.11,11a7.47,7.47,0,0,1-1.89,5.42,6.64,6.64,0,0,1-5,2,6.7,6.7,0,0,1-5.07-1.95A7.39,7.39,0,0,1,14.22,11Zm3-.09a5.33,5.33,0,0,0,1.12,3.68,3.85,3.85,0,0,0,5.69,0,5.45,5.45,0,0,0,1.11-3.73A5.36,5.36,0,0,0,24,7.22,3.65,3.65,0,0,0,21.17,6a3.67,3.67,0,0,0-2.88,1.23A5.42,5.42,0,0,0,17.2,10.93Z" transform="translate(-2.67 -3.53)"/><path d="M37,12.83V10.42h6.23v5.7a7.77,7.77,0,0,1-2.63,1.55,9.49,9.49,0,0,1-3.49.67,8,8,0,0,1-3.92-.94,6,6,0,0,1-2.5-2.7,8.71,8.71,0,0,1-.84-3.81,8.32,8.32,0,0,1,.93-4,6.31,6.31,0,0,1,2.75-2.66A7.31,7.31,0,0,1,37,3.53a6.89,6.89,0,0,1,4.17,1.12,5.09,5.09,0,0,1,1.93,3.09l-2.87.54a3,3,0,0,0-1.14-1.66A3.43,3.43,0,0,0,37,6a3.93,3.93,0,0,0-3,1.21,5.08,5.08,0,0,0-1.12,3.56A5.57,5.57,0,0,0,34,14.59a3.77,3.77,0,0,0,3,1.28,5,5,0,0,0,1.82-.36,6.08,6.08,0,0,0,1.56-.86V12.83Z" transform="translate(-2.67 -3.53)"/><path d="M45.83,18.09V3.78h2.89V18.09Z" transform="translate(-2.67 -3.53)"/><path d="M51.51,18.09V3.78h2.81l5.86,9.56V3.78h2.68V18.09H60L54.19,8.76v9.33Z" transform="translate(-2.67 -3.53)"/><line class="cls-1" x1="64.33" y1="7.69" x2="85.92" y2="7.69"/><line class="cls-1" x1="79.16" y1="15.47" x2="86.33" y2="7.47"/><line class="cls-1" x1="78.69" y1="0.95" x2="86.81" y2="7.98"/></svg>
