<svg xmlns="http://www.w3.org/2000/svg" xmlns:xlink="http://www.w3.org/1999/xlink" version="1.1" x="0px" y="0px" viewBox="0 0 77.109 102.41250000000001" style="enable-background:new 0 0 77.109 81.93;" xml:space="preserve"><g><g><rect x="36.948" y="36.949" width="9.638" height="1.606"/><rect x="36.948" y="69.078" width="30.522" height="1.607"/><rect x="36.948" y="30.523" width="9.638" height="1.605"/><rect x="36.948" y="62.652" width="30.522" height="1.606"/><rect x="36.948" y="43.375" width="30.522" height="1.606"/><rect x="36.948" y="49.801" width="30.522" height="1.605"/><rect x="36.948" y="56.226" width="30.522" height="1.607"/><rect x="36.948" y="24.097" width="6.425" height="1.607"/><path d="M76.638,34.206L55.754,13.323c-0.29-0.292-0.692-0.471-1.136-0.471H49.8V6.427C49.8,2.878,46.923,0,43.373,0H6.426    C2.877,0,0,2.878,0,6.427v56.226c0,3.548,2.877,6.426,6.426,6.426h20.883v6.426c0,3.549,2.878,6.426,6.427,6.426h36.947    c3.549,0,6.427-2.877,6.427-6.426V35.343C77.109,34.899,76.929,34.498,76.638,34.206z M56.226,18.336l15.398,15.4H56.226V18.336z     M27.309,19.278v46.587H6.426c-1.774,0-3.214-1.439-3.214-3.213V6.427c0-1.774,1.439-3.213,3.214-3.213h36.947    c1.775,0,3.213,1.438,3.213,3.213v6.426H33.735C30.187,12.853,27.309,15.729,27.309,19.278z M73.896,75.504    c0,1.773-1.438,3.213-3.213,3.213H33.735c-1.774,0-3.214-1.439-3.214-3.213V19.278c0-1.774,1.439-3.214,3.214-3.214h19.277v19.278    c0,0.888,0.718,1.606,1.605,1.606h19.277V75.504z"/></g></g><text x="0" y="96.93" fill="#000000" font-size="5px" font-weight="bold" font-family="'Helvetica Neue', Helvetica, Arial-Unicode, Arial, Sans-serif">Created by Douglas Santos</text><text x="0" y="101.93" fill="#000000" font-size="5px" font-weight="bold" font-family="'Helvetica Neue', Helvetica, Arial-Unicode, Arial, Sans-serif">from the Noun Project</text></svg>
