<svg xmlns="http://www.w3.org/2000/svg" xmlns:xlink="http://www.w3.org/1999/xlink" version="1.1" x="0px" y="0px" viewBox="0 0 32 40" style="enable-background:new 0 0 32 32;" xml:space="preserve"><g><path d="M28,8h-3V5c0-0.5527344-0.4472656-1-1-1s-1,0.4472656-1,1v3H9V5c0-0.5527344-0.4472656-1-1-1S7,4.4472656,7,5v3H4   c-1.6542969,0-3,1.3457031-3,3v17c0,1.6542969,1.3457031,3,3,3h24c1.6542969,0,3-1.3457031,3-3V11C31,9.3457031,29.6542969,8,28,8z    M4,10h3v1c0,0.5527344,0.4472656,1,1,1s1-0.4472656,1-1v-1h14v1c0,0.5527344,0.4472656,1,1,1s1-0.4472656,1-1v-1h3   c0.5517578,0,1,0.4482422,1,1v2H3v-2C3,10.4482422,3.4482422,10,4,10z M28,29H4c-0.5517578,0-1-0.4482422-1-1V15h26v13   C29,28.5517578,28.5517578,29,28,29z"/><path d="M20.2470703,16.3417969l-6.2958984,7.1953125l-2.2441406-2.2441406c-0.390625-0.390625-1.0234375-0.390625-1.4140625,0   s-0.390625,1.0234375,0,1.4140625l3,3C13.4804688,25.8945313,13.7353516,26,14,26c0.0107422,0,0.0224609,0,0.0332031-0.0009766   c0.2763672-0.0087891,0.5371094-0.1318359,0.7197266-0.3408203l7-8c0.3632813-0.4150391,0.3212891-1.046875-0.0947266-1.4111328   C21.2441406,15.8828125,20.6113281,15.9248047,20.2470703,16.3417969z"/></g><text x="0" y="47" fill="#000000" font-size="5px" font-weight="bold" font-family="'Helvetica Neue', Helvetica, Arial-Unicode, Arial, Sans-serif">Created by Dam</text><text x="0" y="52" fill="#000000" font-size="5px" font-weight="bold" font-family="'Helvetica Neue', Helvetica, Arial-Unicode, Arial, Sans-serif">from the Noun Project</text></svg>
