<svg xmlns="http://www.w3.org/2000/svg" data-name="Layer 1" viewBox="0 0 100 125" x="0px" y="0px"><title>A</title><path d="M88.50464,19.6712H81.95313v4.94294h6.55151A1.55361,1.55361,0,0,1,90.05713,26.166V64.217a1.55361,1.55361,0,0,1-1.55249,1.55188H82.62231A2.47074,2.47074,0,0,0,80.179,68.60962l2.24169,14.82495L62.978,66.38239a2.472,2.472,0,0,0-1.62964-.61353H41.30872l-5.637,4.94293h24.746L84.24524,91.61017a2.47133,2.47133,0,0,0,4.07312-2.22724L85.49548,70.71179h3.00916A6.50233,6.50233,0,0,0,95,64.217V26.166A6.50234,6.50234,0,0,0,88.50464,19.6712Z"/><path d="M11.59381,59.95612h3.14728L11.8429,79.15778A2.47148,2.47148,0,0,0,15.916,81.385L40.35358,59.95612H70.3587a6.60214,6.60214,0,0,0,6.59479-6.59479V14.371A6.60208,6.60208,0,0,0,70.3587,7.77631H11.59381A6.60187,6.60187,0,0,0,5,14.371v38.9903A6.60193,6.60193,0,0,0,11.59381,59.95612ZM9.94293,14.371a1.65313,1.65313,0,0,1,1.65088-1.65179H70.3587A1.654,1.654,0,0,1,72.01056,14.371v38.9903a1.654,1.654,0,0,1-1.65186,1.65185H39.42389a2.47176,2.47176,0,0,0-1.62964.613L17.73962,73.21173l2.318-15.35828a2.47056,2.47056,0,0,0-2.44348-2.84027H11.59381a1.65313,1.65313,0,0,1-1.65088-1.65185Z"/><circle cx="23.45984" cy="33.86627" r="4"/><circle cx="40.97675" cy="33.86627" r="4"/><circle cx="58.49365" cy="33.86627" r="4"/><text x="0" y="115" fill="#000000" font-size="5px" font-weight="bold" font-family="'Helvetica Neue', Helvetica, Arial-Unicode, Arial, Sans-serif">Created by Markus</text><text x="0" y="120" fill="#000000" font-size="5px" font-weight="bold" font-family="'Helvetica Neue', Helvetica, Arial-Unicode, Arial, Sans-serif">from the Noun Project</text></svg>
