<svg xmlns="http://www.w3.org/2000/svg" xmlns:xlink="http://www.w3.org/1999/xlink" version="1.1" x="0px" y="0px" viewBox="0 0 66 82.5" enable-background="new 0 0 66 66" xml:space="preserve"><g><g><path d="M17.6,32.2c-1.7-0.3-3.3,0.8-3.6,2.5c-0.3,1.9,1.1,3.7,3.1,3.7c0.6,0,1.2-0.2,1.7-0.5c0.7-0.5,1.1-1.2,1.3-2    C20.4,34.2,19.3,32.5,17.6,32.2z M18.1,35.5c-0.1,0.6-0.7,1-1.3,0.9c-0.6-0.1-1-0.7-0.9-1.3c0.1-0.5,0.6-0.9,1.1-0.9    C17.7,34.2,18.2,34.8,18.1,35.5C18.1,35.5,18.1,35.5,18.1,35.5z"/></g><g><path d="M16.7,25.7l4.1,0.8c0.5,0.1,1.1-0.2,1.2-0.8L25,9.5c0.1-0.5-0.3-1.1-0.8-1.2l-4.1-0.8c-0.5-0.1-1.1,0.3-1.2,0.8l-3.1,16.2    C15.8,25.1,16.1,25.6,16.7,25.7z M20.7,9.7l2.2,0.4l-2.7,14.2L18,23.9L20.7,9.7z"/></g><g><path d="M61.5,45.2c0.2-0.3,0.3-0.7,0.1-1.1c-0.2-0.3-0.5-0.6-0.9-0.6H57V5.7c0-0.6-0.4-1-1-1h-9.2c-0.6,0-1,0.4-1,1v37.9h-3.9    V12.5c0-0.1-0.1-0.4-0.1-0.5L36,1.5c-0.4-0.6-1.4-0.6-1.8,0L28.4,12l1.3-7.1c0-0.3,0-0.5-0.2-0.7c-0.1-0.2-0.4-0.4-0.6-0.4    L17.4,1.5c-0.5-0.1-1.1,0.3-1.2,0.8L8.5,43c0,0.2,0,0.4,0.1,0.6H8c-0.3,0-0.6,0.1-0.8,0.4c-3.9,4.8-3.9,12.1,0,16.9    c0.2,0.2,0.5,0.4,0.8,0.4h10.2V64c0,0.4,0.2,0.7,0.6,0.9c0.4,0.2,0.8,0.1,1.1-0.1l3.2-2.6l3.2,2.6c0.3,0.2,0.7,0.3,1.1,0.1    c0.4-0.2,0.6-0.5,0.6-0.9v-2.8h32.9c0.4,0,0.7-0.2,0.9-0.6c0.2-0.3,0.1-0.8-0.1-1.1C58.2,55.5,58.2,49.3,61.5,45.2z M55,6.7v36.9    h-7.2v-2.4h4.5c0.6,0,1-0.4,1-1c0-0.6-0.4-1-1-1h-4.5v-3h2.9c0.6,0,1-0.4,1-1c0-0.6-0.4-1-1-1h-2.9v-3h4.5c0.6,0,1-0.4,1-1    c0-0.6-0.4-1-1-1h-4.5v-3h2.9c0.6,0,1-0.4,1-1c0-0.6-0.4-1-1-1h-2.9v-3h4.5c0.6,0,1-0.4,1-1c0-0.6-0.4-1-1-1h-4.5v-3h2.9    c0.6,0,1-0.4,1-1c0-0.6-0.4-1-1-1h-2.9v-3h4.5c0.6,0,1-0.4,1-1c0-0.6-0.4-1-1-1h-4.5V6.7H55z M39.9,13.5v30.1h-3.8V13.5H39.9z     M34.1,43.6h-3.8V13.5h3.8V43.6z M28.3,43.6h-5.8l5.8-30.9V43.6z M35.1,4.1l1.3,2.4h-2.7L35.1,4.1z M32.7,8.5h4.9l1.6,3H31    L32.7,8.5z M10.7,42.4L18,3.7l9.6,1.8l-7.2,38.1h-3.1L10.7,42.4z M25.8,61.9l-2.2-1.8c-0.2-0.2-0.4-0.2-0.6-0.2    c-0.2,0-0.5,0.1-0.6,0.2l-2.2,1.8c0-0.6,0-8.6,0-8.4h5.6V61.9z M27.8,53.4h21c0.6,0,1-0.4,1-1c0-0.6-0.4-1-1-1    c-11.9,0-22.2,0-34,0c-0.6,0-1,0.4-1,1c0,0.6,0.4,1,1,1h3.4v2h-7.3c-0.5-2-0.5-4.1,0-6.1H53c-0.2,2-0.2,4.1,0,6.1H27.8V53.4z     M58.8,59.2H27.8v-1.8h26.3c0.3,0,0.6-0.1,0.8-0.3c0.2-0.2,0.3-0.5,0.2-0.8c-0.4-2.6-0.4-5.3,0-7.8c0-0.3,0-0.6-0.2-0.8    c-0.2-0.2-0.5-0.3-0.8-0.3H10.2c-0.4,0-0.8,0.3-0.9,0.7c-1,2.7-1,6,0,8.8c0.1,0.4,0.5,0.7,0.9,0.7h8v1.8H8.5    c-2.9-4-2.9-9.7,0-13.6c15.5,0,35.3,0,50.4,0C56.4,49.8,56.4,55.1,58.8,59.2z"/></g></g><text x="0" y="81" fill="#000000" font-size="5px" font-weight="bold" font-family="'Helvetica Neue', Helvetica, Arial-Unicode, Arial, Sans-serif">Created by ProSymbols</text><text x="0" y="86" fill="#000000" font-size="5px" font-weight="bold" font-family="'Helvetica Neue', Helvetica, Arial-Unicode, Arial, Sans-serif">from the Noun Project</text></svg>